PathFileType	4	(X/Y/Z)	C:/Users/opensim2020/Desktop/walking_exp_matlab/subject06_walking12_straigt_01.trc																																																																																																																																														
DataRate	CameraRate	NumFrames	NumMarkers	Units	OrigDataRate	OrigDataStartFrame	OrigNumFrames																																																																																																																																										
100	100	7	48	mm	100	844	196																																																																																																																																										
Frame#	Time	LFHD			RFHD			LBHD			RBHD			C7			T10			CLAV			STRN			RBAK			LSHO			LUPA			LELB			LFRM			LWRA			LWRB			LFIN			RSHO			RUPA			RELB			RFRM			RWRA			RWRB			RFIN			LASI			RASI			LPSI			RPSI			LTHI			LKNE			LTIB			LANK			LHEE			LTOE			RTHI			RKNE			RTIB			RANK			RHEE			RTOE			*39			*40			*41			*42			*43			*44			*45			*46			*47		
		X1	Y1	Z1	X2	Y2	Z2	X3	Y3	Z3	X4	Y4	Z4	X5	Y5	Z5	X6	Y6	Z6	X7	Y7	Z7	X8	Y8	Z8	X9	Y9	Z9	X10	Y10	Z10	X11	Y11	Z11	X12	Y12	Z12	X13	Y13	Z13	X14	Y14	Z14	X15	Y15	Z15	X16	Y16	Z16	X17	Y17	Z17	X18	Y18	Z18	X19	Y19	Z19	X20	Y20	Z20	X21	Y21	Z21	X22	Y22	Z22	X23	Y23	Z23	X24	Y24	Z24	X25	Y25	Z25	X26	Y26	Z26	X27	Y27	Z27	X28	Y28	Z28	X29	Y29	Z29	X30	Y30	Z30	X31	Y31	Z31	X32	Y32	Z32	X33	Y33	Z33	X34	Y34	Z34	X35	Y35	Z35	X36	Y36	Z36	X37	Y37	Z37	X38	Y38	Z38	X39	Y39	Z39	X40	Y40	Z40	X41	Y41	Z41	X42	Y42	Z42	X43	Y43	Z43	X44	Y44	Z44	X45	Y45	Z45	X46	Y46	Z46	X47	Y47	Z47	X48	Y48	Z48
																																																																																																																																																	
50	0.49	-394.74658	1665.19946	-1052.82813	-406.34528	1646.21301	-922.73041	-530.29932	1621.62305	-1067.75159	-540.39014	1607.67004	-939.54779	-547.435	1458.37402	-1019.13092	-595.80969	1130.776	-1015.92841	-440.66595	1375.31421	-1016.96155	-407.31046	1199.33325	-1029.37097	-629.3172	1288.01453	-946.28107	-489.0065	1415.98633	-1178.73987	-491.22214	1216.25562	-1257.00964	-493.26315	1104.28711	-1273.03796	-452.39694	959.20465	-1296.30054	-382.02441	852.32489	-1250.58093	-437.40579	840.46161	-1293.50012	-384.26187	767.3725	-1292.82434	-491.11261	1406.12952	-857.15576	-537.26776	1207.60693	-775.67645	-532.10553	1085.94446	-763.66095	-528.99854	966.01776	-743.64618	-484.56631	819.61804	-765.96118	-541.15338	828.25916	-730.86182	-513.38983	748.61438	-723.64374	-429.73489	959.75482	-1129.27197	-417.07932	972.43555	-909.19995	-584.75275	992.19794	-1094.797	-569.40802	1003.45618	-927.72626	-491.62833	640.9278	-1181.62549	-478.83545	478.44464	-1165.65088	-671.60986	325.34979	-1150.15894	-800.93268	214.485	-1110.52893	-830.07202	233.5811	-1059.63379	-750.06787	76.33291	-1120.83582	-464.92886	642.24316	-846.05383	-453.54926	517.62384	-871.30231	-484.10345	251.5067	-882.51672	-467.76416	64.20583	-934.1236	-499.84296	39.51495	-982.40802	-305.16357	36.58783	-939.43231	-496.28702	1707.47424	-999.44275	NaN	NaN	NaN	NaN	NaN	NaN	NaN	NaN	NaN	NaN	NaN	NaN	NaN	NaN	NaN	NaN	NaN	NaN	NaN	NaN	NaN	NaN	NaN	NaN
51	0.5	-385.59235	1666.01074	-1052.74255	-396.67905	1647.22839	-922.52332	-521.17175	1622.25513	-1067.00818	-530.68652	1608.49646	-938.80212	-537.89697	1459.08325	-1018.21277	-586.0957	1131.53137	-1014.98413	-431.12225	1376.09998	-1016.16516	-397.76105	1200.08582	-1028.39819	-619.63556	1288.67407	-944.93268	-479.97006	1416.25024	-1178.0863	-483.9093	1216.4325	-1255.82056	-487.50977	1104.52881	-1271.65271	-449.88913	958.57654	-1295.21741	-382.31787	849.75177	-1249.64941	-438.1615	839.65424	-1292.92993	-386.81323	764.9939	-1291.98462	-481.43082	1407.04187	-856.30365	-526.29633	1208.31604	-774.61029	-519.80566	1086.66821	-762.45343	-515.3111	966.81067	-742.34167	-468.58444	820.89581	-764.40942	-525.55896	828.8786	-729.74835	-496.71091	749.73206	-722.33276	-420.2825	960.54852	-1127.85315	-407.99173	972.88501	-907.99115	-574.96948	993.03137	-1094.38391	-560.52771	1004.26666	-927.09857	-477.22641	642.15186	-1180.91943	-461.44861	479.91391	-1164.58069	-652.47742	325.46332	-1149.15308	-781.07733	213.56007	-1109.39575	-811.30768	232.02071	-1058.67358	-726.51508	77.12847	-1119.31897	-460.06042	642.42047	-846.00891	-450.78619	517.51465	-870.76349	-483.20367	251.77692	-882.23822	-467.9079	64.21095	-934.06805	-499.94031	39.43522	-982.35913	-305.46432	36.68706	-939.29443	-487.01312	1708.22888	-998.9342	NaN	NaN	NaN	NaN	NaN	NaN	NaN	NaN	NaN	NaN	NaN	NaN	NaN	NaN	NaN	NaN	NaN	NaN	NaN	NaN	NaN	NaN	NaN	NaN
52	0.51	-376.43585	1666.71362	-1052.51392	-387.05579	1648.06506	-922.28668	-512.06647	1622.79443	-1066.33411	-521.14246	1609.2179	-937.9892	-528.51666	1459.74341	-1017.38031	-576.41333	1132.01294	-1014.10901	-421.6785	1376.76135	-1015.46887	-388.31491	1200.62866	-1027.42065	-610.04425	1289.27148	-943.63556	-470.71661	1416.99121	-1177.32813	-476.81476	1216.6593	-1254.83289	-481.75748	1104.90601	-1270.54797	-447.52319	958.15216	-1294.11401	-382.72482	847.50543	-1248.71265	-438.67499	838.93774	-1292.16187	-389.25122	762.91327	-1291.29688	-471.72086	1407.87097	-855.50037	-515.35211	1208.89868	-773.60303	-507.70001	1087.36304	-761.21185	-501.6738	967.57043	-741.1413	-453.32352	822.41772	-763.37445	-510.12894	829.50104	-728.61823	-480.27448	750.86267	-720.96704	-409.82312	961.50159	-1126.8313	-399.27756	973.21771	-906.82025	-565.20984	993.84406	-1094.09998	-551.42206	1004.86475	-926.80719	-462.61453	643.16882	-1180.05249	-444.11307	481.32983	-1163.42053	-633.2547	324.83615	-1148.27234	-760.64508	211.45631	-1108.30078	-791.89038	229.17424	-1057.72461	-701.57056	77.56316	-1117.89758	-454.66962	642.58722	-845.74963	-447.67767	517.35962	-870.29199	-482.13168	252.03984	-882.13092	-467.89664	64.27424	-934.14215	-500.40491	39.65473	-982.21259	-305.74191	36.71893	-939.1662	-477.72144	1708.87305	-998.505	NaN	NaN	NaN	NaN	NaN	NaN	NaN	NaN	NaN	NaN	NaN	NaN	NaN	NaN	NaN	NaN	NaN	NaN	NaN	NaN	NaN	NaN	NaN	NaN
53	0.52	-367.38708	1667.2865	-1052.54138	-377.42285	1648.75745	-922.19592	-503.00302	1623.16003	-1065.61743	-511.4584	1609.76721	-937.3501	-519.04791	1460.17419	-1016.59363	-566.83154	1132.53735	-1013.26807	-412.18939	1377.23938	-1014.7757	-378.74908	1201.11304	-1026.46777	-600.46014	1289.78247	-942.42657	-461.69821	1416.71082	-1176.68457	-469.69586	1217.00085	-1254.00574	-476.28088	1105.18311	-1269.17859	-445.10516	957.79865	-1292.98633	-383.07077	845.45892	-1247.70923	-438.99536	838.43732	-1291.36902	-391.62387	761.13483	-1290.26782	-462.09845	1408.61743	-854.81122	-504.0957	1209.52063	-772.31525	-495.62836	1088.0094	-760.02209	-488.10876	968.27069	-739.95068	-437.685	824.09265	-762.1543	-494.75058	830.12677	-727.54932	-463.7399	751.95996	-719.80963	-399.90298	962.26172	-1125.55212	-390.45215	973.40918	-905.55841	-555.43298	994.51575	-1093.78052	-542.62317	1005.50562	-926.3822	-448.56342	644.41772	-1179.34473	-426.89325	482.71567	-1162.12585	-612.69403	323.23526	-1146.95313	-739.36249	208.37878	-1107.37195	-771.828	225.21289	-1056.96167	-675.97302	77.07595	-1116.61279	-449.23184	642.59161	-845.64166	-444.5654	517.13788	-870.29584	-480.64493	252.21667	-882.18005	-467.75452	64.37034	-934.36255	-500.2692	39.57107	-982.50171	-306.1564	36.81407	-939.0542	-468.46661	1709.40942	-998.11743	NaN	NaN	NaN	NaN	NaN	NaN	NaN	NaN	NaN	NaN	NaN	NaN	NaN	NaN	NaN	NaN	NaN	NaN	NaN	NaN	NaN	NaN	NaN	NaN
54	0.53	-358.36267	1667.69922	-1052.51624	-367.83267	1649.37085	-922.16595	-494.07541	1623.42859	-1065.05322	-501.82959	1610.15527	-936.65961	-509.64783	1460.41345	-1015.83392	-557.39001	1133.05713	-1012.48523	-402.74188	1377.65869	-1014.16016	-369.14236	1201.5343	-1025.47974	-590.89478	1290.30676	-941.31567	-452.51004	1417.46826	-1176.00562	-462.68573	1217.15833	-1252.97546	-470.84036	1105.4679	-1268.09558	-442.60211	957.56116	-1291.85815	-383.30838	843.69666	-1246.70752	-439.23825	838.22601	-1290.53625	-393.84055	759.57965	-1289.39124	-452.49805	1409.21704	-854.14545	-493.17654	1210.0249	-771.30768	-483.72955	1088.60706	-758.88629	-474.68613	968.96869	-738.81763	-422.27823	825.48157	-761.26575	-479.32742	830.7713	-726.57599	-447.15485	753.1153	-718.88593	-390.14539	962.73798	-1124.23718	-381.94614	973.46063	-904.35675	-545.74493	995.15039	-1093.54211	-533.68683	1005.92786	-926.10455	-434.46124	645.17279	-1178.84302	-409.74872	484.10754	-1160.84741	-593.43323	321.56802	-1146.27942	-717.43451	204.27547	-1106.51965	-750.94617	220.01671	-1056.46863	-648.85352	76.35503	-1115.25439	-443.66064	642.48694	-845.66345	-440.53009	516.96606	-870.00366	-478.98154	252.36526	-882.31396	-467.47137	64.50498	-934.72742	-500.31989	39.73335	-982.74609	-306.41788	36.72189	-939.07947	-459.26886	1709.79248	-997.71527	NaN	NaN	NaN	NaN	NaN	NaN	NaN	NaN	NaN	NaN	NaN	NaN	NaN	NaN	NaN	NaN	NaN	NaN	NaN	NaN	NaN	NaN	NaN	NaN
55	0.54	-349.42505	1668.02332	-1052.73254	-358.1907	1649.89844	-922.24597	-485.00757	1623.5542	-1064.50793	-492.30026	1610.45142	-936.02271	-500.12372	1460.63538	-1015.19128	-547.89465	1133.21851	-1011.66919	-393.24524	1377.91443	-1013.59534	-359.82611	1201.70447	-1024.64355	-581.39252	1290.71606	-940.34827	-443.48798	1417.44568	-1175.30371	-455.74033	1217.31384	-1252.14417	-465.56876	1105.92542	-1266.90991	-440.19724	957.36517	-1290.70935	-383.51239	842.06409	-1245.70276	-439.25168	837.91626	-1289.55859	-395.88577	758.23083	-1288.52014	-442.89886	1409.72864	-853.56512	-482.08423	1210.51392	-770.29675	-472.08948	1089.1272	-757.7688	-461.46527	969.61316	-737.72253	-406.92166	827.1015	-760.59497	-463.98715	831.4151	-725.5564	-430.52667	754.32983	-718.1048	-380.37766	963.16779	-1122.96558	-373.46841	973.24652	-903.04333	-536.17523	995.67029	-1093.30237	-525.02728	1006.22711	-925.7215	-420.50314	646.03741	-1178.2749	-392.89157	485.5477	-1159.4989	-572.2323	319.1127	-1145.76624	-694.62238	199.31148	-1105.771	-729.2738	213.97929	-1055.86304	-621.62512	74.34815	-1114.1427	-438.03247	642.36816	-845.67297	-436.37009	516.85535	-869.71136	-477.09732	252.60655	-882.5296	-467.06027	64.73119	-935.18927	-500.1767	39.85723	-983.19354	-306.56271	36.37	-939.15723	-450.04608	1710.0802	-997.53748	NaN	NaN	NaN	NaN	NaN	NaN	NaN	NaN	NaN	NaN	NaN	NaN	NaN	NaN	NaN	NaN	NaN	NaN	NaN	NaN	NaN	NaN	NaN	NaN
56	0.55	-340.29663	1668.32568	-1052.84863	-348.53607	1650.35559	-922.46326	-475.99493	1623.604	-1064.09167	-482.68851	1610.66345	-935.58667	-490.62973	1460.80811	-1014.56647	-538.63727	1133.53589	-1010.95441	-383.84201	1378.14392	-1013.07947	-350.35989	1201.86169	-1023.71576	-571.87677	1291.01733	-939.44128	-434.26331	1417.75513	-1174.94666	-448.77036	1217.55505	-1251.52747	-460.16727	1106.22266	-1265.80981	-437.76108	957.20276	-1289.66101	-383.5097	840.66064	-1244.67444	-439.28149	837.7832	-1288.68359	-397.76434	757.09161	-1287.63538	-433.24747	1410.12036	-853.00415	-471.60236	1210.9198	-769.31598	-460.7164	1089.57068	-756.62537	-448.4248	970.23798	-736.67694	-391.62228	828.67212	-760.04297	-448.52887	832.05945	-724.75793	-413.77097	755.57037	-717.54132	-370.56656	963.48334	-1121.71338	-365.08105	972.89429	-901.80719	-526.66748	996.05023	-1093.10852	-516.68585	1006.39136	-925.16449	-406.74481	646.93365	-1177.67395	-376.20233	487.05524	-1158.16724	-551.58777	316.24115	-1145.0022	-671.28229	193.5451	-1105.13525	-706.91248	207.0275	-1055.24536	-593.43781	72.05722	-1113.2937	-432.22955	642.15137	-845.64453	-431.64404	516.66132	-869.38794	-474.57501	252.75186	-882.80646	-466.45663	64.98843	-935.73883	-499.93158	40.03991	-983.68597	-306.51083	35.81192	-939.21661	-440.90912	1710.26746	-997.31268	NaN	NaN	NaN	NaN	NaN	NaN	NaN	NaN	NaN	NaN	NaN	NaN	NaN	NaN	NaN	NaN	NaN	NaN	NaN	NaN	NaN	NaN	NaN	NaN
